<?xml version="1.0" ?><!DOCTYPE svg  PUBLIC '-//W3C//DTD SVG 1.1//EN'  'http://www.w3.org/Graphics/SVG/1.1/DTD/svg11.dtd'><svg width="846.66px" height="846.66px" viewBox="0 0 846.66 846.66" style="shape-rendering:geometricPrecision; text-rendering:geometricPrecision; image-rendering:optimizeQuality; fill-rule:evenodd; clip-rule:evenodd" version="1.1" xml:space="preserve" xmlns="http://www.w3.org/2000/svg" xmlns:xlink="http://www.w3.org/1999/xlink"><defs><style type="text/css">
   <![CDATA[
    .fil0 {fill:black;fill-rule:nonzero}
   ]]>
  </style></defs><g id="Layer_x0020_1"><path class="fil0" d="M314.08 602.98l0 -111.35 -179 117.44c-7.8,5.11 -17.94,3.83 -24.26,-2.55 -7.67,-7.18 -73.84,-72.75 -3.48,-134.94l206.74 -188.52 0 -108.82c0,-183.37 218.5,-183.37 218.5,0l0 108.82 206.74 188.52c74.45,65.8 -3.98,135.41 -4.2,135.61 -6.64,6.04 -16.36,6.58 -23.54,1.88l-179 -117.44 0 105.34 56.22 50.6c86.23,76.21 -4.92,157.1 -5.17,157.34 -6.63,5.99 -16.29,6.51 -23.44,1.83l-0.03 0.05 -133.52 -87.6 -133.52 87.6c-8.06,5.28 -18.6,3.74 -24.86,-3.19 -11.16,-10.65 -83.75,-85.35 -3.78,-156.03l49.6 -44.59zm52.81 -416.97l0 -21.71c0,-98.26 112.88,-98.26 112.88,0l0 21.71c0,10.67 -8.64,19.32 -19.31,19.32l-74.26 0c-10.67,0 -19.31,-8.65 -19.31,-19.32zm38.63 -21.71l0 2.4 35.62 0c0,-51.21 -35.62,-48.16 -35.62,-2.4zm-52.81 291.57l0 155.62 -0.04 0c0,5.24 -2.12,10.46 -6.3,14.26l-56.39 50.65c-38.92,34.4 -18.6,71.4 -4.43,89.2l129.78 -85.15c7.13,-4.91 15.52,-4.9 22.64,0.02l129.76 85.13c14.18,-17.8 34.5,-54.8 -4.43,-89.2l-62.15 -55.88c-4.39,-3.55 -7.2,-8.97 -7.2,-15.04l0 -149.61 0.02 0c-0.01,-15.18 16.97,-24.59 29.86,-16.14l195.04 127.98c10.9,-14.74 23.57,-42.01 -5.05,-67.31 -71.79,-63.43 -142.23,-129.04 -212.73,-193.92 -4.35,-3.54 -7.14,-8.94 -7.14,-14.99l0 -117.25c0,-132.22 -141.24,-132.22 -141.24,0l0 117.25 -0.04 0c0,5.2 -2.09,10.38 -6.22,14.18l-213.61 194.73c-28.62,25.3 -15.95,52.57 -5.05,67.31l194.3 -127.5c13.69,-9.43 30.62,0.6 30.62,15.66z"/></g></svg>